<svg width="512" height="512" viewBox="0 0 512 512" fill="none" xmlns="http://www.w3.org/2000/svg">
<g clip-path="url(#clip0_1011_65)">
<rect width="512" height="512" fill="url(#paint0_linear_1011_65)"/>
<g filter="url(#filter0_d_1011_65)">
<path d="M378.508 401.8H390.508C400.374 401.8 407.308 399.533 411.308 395C415.574 390.467 417.708 382.867 417.708 372.2V291.8C417.708 281.667 419.441 273.267 422.908 266.6C426.374 259.933 432.374 253.667 440.908 247.8C432.374 241.933 426.374 235.667 422.908 229C419.441 222.333 417.708 213.933 417.708 203.8V123.4C417.708 112.733 415.574 105.133 411.308 100.6C407.308 96.0667 400.374 93.8 390.508 93.8H378.508V73.8H390.508C408.908 73.8 422.108 77.6667 430.108 85.4C438.374 93.1333 442.508 105.8 442.508 123.4V203.8C442.508 213.933 445.308 222.6 450.908 229.8C456.774 236.733 465.974 242.733 478.508 247.8C465.974 252.867 456.774 259 450.908 266.2C445.308 273.133 442.508 281.667 442.508 291.8V372.2C442.508 389.8 438.374 402.467 430.108 410.2C422.108 417.933 408.908 421.8 390.508 421.8H378.508V401.8Z" fill="white"/>
</g>
<g filter="url(#filter1_d_1011_65)">
<path d="M121.008 421.8C102.608 421.8 89.2745 417.933 81.0078 410.2C73.0078 402.467 69.0078 389.8 69.0078 372.2V291.8C69.0078 281.667 66.0745 273.133 60.2078 266.2C54.6078 259 45.5411 252.867 33.0078 247.8C45.5411 242.733 54.6078 236.733 60.2078 229.8C66.0745 222.6 69.0078 213.933 69.0078 203.8V123.4C69.0078 105.8 73.0078 93.1333 81.0078 85.4C89.2745 77.6667 102.608 73.8 121.008 73.8H133.008V93.8H121.008C111.141 93.8 104.074 96.0667 99.8078 100.6C95.8078 105.133 93.8078 112.733 93.8078 123.4V203.8C93.8078 213.933 92.0745 222.333 88.6078 229C85.1412 235.667 79.1412 241.933 70.6078 247.8C79.1412 253.667 85.1412 259.933 88.6078 266.6C92.0745 273.267 93.8078 281.667 93.8078 291.8V372.2C93.8078 382.867 95.8078 390.467 99.8078 395C104.074 399.533 111.141 401.8 121.008 401.8H133.008V421.8H121.008Z" fill="#F5F5F5"/>
</g>
<g filter="url(#filter2_dd_1011_65)">
<path d="M152.646 181L206.646 149.75C212.312 146.417 217.312 146 221.646 148.5C226.146 151 228.396 155.583 228.396 162.25V322.25L206.646 334.75V284.75L152.646 316V366L130.896 378.5V218.5C130.896 214 131.896 209.333 133.896 204.5C135.896 199.5 138.562 194.917 141.896 190.75C145.229 186.417 148.812 183.167 152.646 181ZM206.646 259.75V174.75L152.646 206V291L206.646 259.75ZM206.646 284.75V334.75L184.896 322.25V272.25L206.646 284.75ZM206.646 174.75V259.75L184.896 247.25V162.25L206.646 174.75ZM206.646 259.75L152.646 291L130.896 278.5L184.896 247.25L206.646 259.75ZM221.896 148.5C217.396 146 212.312 146.417 206.646 149.75L152.646 181C148.812 183.167 145.229 186.417 141.896 190.75C138.562 194.917 135.896 199.5 133.896 204.5C131.896 209.333 130.896 214 130.896 218.5V378.5L109.146 366V206C109.146 201.5 110.146 196.833 112.146 192C114.146 187 116.812 182.417 120.146 178.25C123.479 173.917 127.062 170.667 130.896 168.5L184.896 137.25C190.729 133.917 195.812 133.5 200.146 136L221.896 148.5ZM315.015 373.5C309.348 376.833 304.348 377.25 300.015 374.75C295.681 372.25 293.515 367.667 293.515 361L325.765 342.25V172.25L347.515 159.75V329.75L380.015 311V141L401.765 128.5V273.5C401.765 277.833 400.681 282.5 398.515 287.5C396.515 292.5 393.848 297.167 390.515 301.5C387.348 305.667 383.848 308.833 380.015 311C380.015 315.333 379.015 320 377.015 325C375.015 330 372.348 334.667 369.015 339C365.681 343.167 362.098 346.333 358.265 348.5L315.015 373.5ZM293.515 361C287.681 364.333 282.598 364.75 278.265 362.25C273.931 359.75 271.765 355.167 271.765 348.5V203.5L293.515 191V361ZM401.765 128.5L380.015 141L358.265 128.5L380.015 116L401.765 128.5ZM380.015 141V311L358.265 298.5V128.5L380.015 141ZM380.015 311L347.515 329.75L325.765 317.25L358.265 298.5L380.015 311ZM325.765 342.25L293.515 361L271.765 348.5L304.265 329.75L325.765 342.25ZM293.515 361C293.515 367.667 295.681 372.25 300.015 374.75L278.265 362.25C273.931 359.75 271.765 355.167 271.765 348.5L293.515 361ZM347.515 159.75L325.765 172.25L304.265 159.75L325.765 147.25L347.515 159.75ZM325.765 172.25V342.25L304.265 329.75V159.75L325.765 172.25ZM293.515 191L271.765 203.5L250.015 191L271.765 178.5L293.515 191ZM271.765 203.5V348.5C271.765 355.167 273.931 359.75 278.265 362.25L256.515 349.75C252.181 347.25 250.015 342.667 250.015 336V191L271.765 203.5Z" fill="white"/>
</g>
</g>
<defs>
<filter id="filter0_d_1011_65" x="374.508" y="73.8" width="108" height="356" filterUnits="userSpaceOnUse" color-interpolation-filters="sRGB">
<feFlood flood-opacity="0" result="BackgroundImageFix"/>
<feColorMatrix in="SourceAlpha" type="matrix" values="0 0 0 0 0 0 0 0 0 0 0 0 0 0 0 0 0 0 127 0" result="hardAlpha"/>
<feOffset dy="4"/>
<feGaussianBlur stdDeviation="2"/>
<feComposite in2="hardAlpha" operator="out"/>
<feColorMatrix type="matrix" values="0 0 0 0 0 0 0 0 0 0 0 0 0 0 0 0 0 0 0.25 0"/>
<feBlend mode="normal" in2="BackgroundImageFix" result="effect1_dropShadow_1011_65"/>
<feBlend mode="normal" in="SourceGraphic" in2="effect1_dropShadow_1011_65" result="shape"/>
</filter>
<filter id="filter1_d_1011_65" x="29.0078" y="73.8" width="108" height="356" filterUnits="userSpaceOnUse" color-interpolation-filters="sRGB">
<feFlood flood-opacity="0" result="BackgroundImageFix"/>
<feColorMatrix in="SourceAlpha" type="matrix" values="0 0 0 0 0 0 0 0 0 0 0 0 0 0 0 0 0 0 127 0" result="hardAlpha"/>
<feOffset dy="4"/>
<feGaussianBlur stdDeviation="2"/>
<feComposite in2="hardAlpha" operator="out"/>
<feColorMatrix type="matrix" values="0 0 0 0 0 0 0 0 0 0 0 0 0 0 0 0 0 0 0.25 0"/>
<feBlend mode="normal" in2="BackgroundImageFix" result="effect1_dropShadow_1011_65"/>
<feBlend mode="normal" in="SourceGraphic" in2="effect1_dropShadow_1011_65" result="shape"/>
</filter>
<filter id="filter2_dd_1011_65" x="102.146" y="109" width="314.619" height="284.5" filterUnits="userSpaceOnUse" color-interpolation-filters="sRGB">
<feFlood flood-opacity="0" result="BackgroundImageFix"/>
<feColorMatrix in="SourceAlpha" type="matrix" values="0 0 0 0 0 0 0 0 0 0 0 0 0 0 0 0 0 0 127 0" result="hardAlpha"/>
<feMorphology radius="6" operator="dilate" in="SourceAlpha" result="effect1_dropShadow_1011_65"/>
<feOffset dx="4" dy="4"/>
<feGaussianBlur stdDeviation="2.5"/>
<feColorMatrix type="matrix" values="0 0 0 0 0 0 0 0 0 0 0 0 0 0 0 0 0 0 0.2 0"/>
<feBlend mode="normal" in2="BackgroundImageFix" result="effect1_dropShadow_1011_65"/>
<feColorMatrix in="SourceAlpha" type="matrix" values="0 0 0 0 0 0 0 0 0 0 0 0 0 0 0 0 0 0 127 0" result="hardAlpha"/>
<feMorphology radius="3" operator="dilate" in="SourceAlpha" result="effect2_dropShadow_1011_65"/>
<feOffset dx="5" dy="5"/>
<feGaussianBlur stdDeviation="2.5"/>
<feColorMatrix type="matrix" values="0 0 0 0 0.101961 0 0 0 0 0.12549 0 0 0 0 0.172549 0 0 0 0.15 0"/>
<feBlend mode="normal" in2="effect1_dropShadow_1011_65" result="effect2_dropShadow_1011_65"/>
<feBlend mode="normal" in="SourceGraphic" in2="effect2_dropShadow_1011_65" result="shape"/>
</filter>
<linearGradient id="paint0_linear_1011_65" x1="256" y1="0" x2="256" y2="512" gradientUnits="userSpaceOnUse">
<stop offset="0.515804" stop-color="#990000"/>
<stop offset="0.903785" stop-color="#330000"/>
</linearGradient>
<clipPath id="clip0_1011_65">
<rect width="512" height="512" fill="white"/>
</clipPath>
</defs>
</svg>
